<?xml version="1.0" standalone="no"?>
<!DOCTYPE svg PUBLIC "-//W3C//DTD SVG 20010904//EN"
 "http://www.w3.org/TR/2001/REC-SVG-20010904/DTD/svg10.dtd">
<svg version="1.0" xmlns="http://www.w3.org/2000/svg"
 width="256.000000pt" height="256.000000pt" viewBox="0 0 256.000000 256.000000"
 preserveAspectRatio="xMidYMid meet">
<metadata>
Created by potrace 1.16, written by Peter Selinger 2001-2019
</metadata>
<g transform="translate(0.000000,256.000000) scale(0.100000,-0.100000)"
fill="#000000" stroke="none">
<path d="M145 2546 c-40 -18 -115 -93 -131 -133 -12 -27 -14 -230 -14 -1135 0
-1053 1 -1105 19 -1143 10 -22 34 -54 52 -72 71 -67 -6 -63 1211 -63 1045 0
1105 1 1143 19 51 23 111 89 125 138 8 27 10 358 8 1145 l-3 1106 -30 43 c-17
24 -50 57 -74 74 l-43 30 -1116 2 c-908 2 -1123 0 -1147 -11z m734 -301 c41
-7 82 -10 90 -7 9 3 12 1 8 -5 -5 -7 8 -16 30 -24 54 -17 173 -71 174 -78 5
-40 4 -53 -8 -62 -7 -6 -13 -8 -13 -4 0 4 -6 2 -14 -4 -10 -9 -15 -8 -20 4 -3
8 -15 15 -26 15 -11 0 -20 3 -20 8 0 10 -54 33 -82 34 -13 1 -30 7 -38 14 -37
29 -208 53 -222 31 -4 -7 -8 -163 -8 -348 0 -257 3 -339 13 -347 15 -12 151
-36 190 -33 15 1 27 -3 27 -7 0 -9 79 -37 93 -34 5 2 21 -7 37 -18 15 -11 32
-20 38 -20 5 0 30 -16 55 -35 25 -19 48 -35 51 -35 3 0 5 167 6 372 0 339 2
372 18 384 9 7 20 10 24 8 4 -3 5 2 2 10 -4 11 0 16 13 16 11 0 39 18 64 40
24 22 49 40 54 40 6 0 33 11 60 25 28 13 58 25 68 25 10 0 16 3 14 8 -3 4 5 7
16 8 22 1 140 23 167 31 15 5 131 6 160 2 13 -2 15 -58 15 -439 0 -411 -1
-437 -17 -432 -10 2 -18 -1 -18 -7 0 -7 -26 -11 -73 -11 -81 0 -187 -18 -187
-31 0 -5 -10 -8 -23 -7 -28 2 -89 -21 -82 -32 3 -4 -14 -13 -38 -19 -23 -6
-55 -23 -72 -37 -16 -14 -23 -23 -15 -19 8 4 4 -2 -10 -13 -13 -11 -29 -18
-34 -15 -5 4 -7 -1 -3 -10 4 -11 -3 -19 -25 -26 -46 -16 -53 -14 -94 27 -20
20 -44 37 -53 37 -9 1 -15 6 -14 13 2 7 -2 12 -7 12 -6 0 -12 0 -15 0 -2 0
-17 12 -31 26 -15 13 -32 23 -38 21 -6 -2 -16 3 -22 11 -6 8 -34 17 -62 20
-28 2 -50 8 -47 12 3 4 -12 10 -33 13 -20 3 -48 9 -62 12 -14 4 -54 9 -90 12
-119 8 -105 -48 -104 430 0 230 4 428 8 440 6 20 12 21 79 16 39 -3 105 -11
146 -18z m-162 -881 c-3 -3 -12 -4 -19 -1 -8 3 -5 6 6 6 11 1 17 -2 13 -5z
m48 -746 c33 -15 36 -53 3 -42 -59 19 -92 -4 -38 -26 17 -7 39 -24 50 -37 l20
-25 9 25 c6 14 19 31 31 37 31 16 84 9 88 -12 3 -15 -2 -17 -26 -12 -24 5 -32
2 -41 -14 -14 -26 -14 -28 5 -46 10 -10 24 -14 40 -10 20 5 24 2 24 -15 0 -17
-6 -21 -36 -21 -44 0 -73 15 -84 43 -8 22 -8 22 -18 -4 -12 -30 -30 -39 -78
-39 -46 0 -74 16 -74 41 0 16 4 19 18 14 61 -27 106 -8 50 21 -50 25 -68 45
-68 74 0 30 13 45 45 53 35 8 53 7 80 -5z m223 -31 c3 -34 5 -35 35 -31 44 6
59 -7 61 -51 1 -30 -3 -39 -21 -46 -21 -8 -23 -5 -23 26 0 18 -5 37 -10 40
-21 13 -40 -17 -40 -61 0 -37 -3 -44 -20 -44 -11 0 -20 6 -21 13 -3 49 2 180
7 188 12 20 29 2 32 -34z m472 17 c0 -20 -29 -30 -43 -15 -9 10 -8 16 7 26 21
16 36 11 36 -11z m160 -80 l0 -102 -54 -1 c-63 0 -90 21 -88 70 1 42 28 69 69
69 31 0 33 2 33 34 0 29 4 34 20 33 19 -1 20 -8 20 -103z m-392 24 c7 -6 12
-34 12 -69 0 -52 -2 -59 -20 -59 -15 0 -20 7 -21 28 -1 30 -8 74 -13 79 -2 2
-11 1 -20 -3 -10 -4 -16 -18 -16 -41 0 -28 -3 -34 -16 -29 -9 3 -20 6 -25 6
-5 0 -9 22 -9 49 l0 49 58 0 c31 0 63 -5 70 -10z m152 -8 c11 -11 20 -29 20
-40 0 -17 -7 -20 -46 -20 -32 0 -44 -4 -41 -12 2 -8 21 -13 46 -12 26 0 41 -4
41 -12 0 -27 -82 -33 -118 -8 -31 21 -31 87 0 108 31 22 74 20 98 -4z m80 -50
c0 -68 -1 -70 -25 -70 -24 0 -25 2 -25 63 0 69 3 77 32 77 16 0 18 -9 18 -70z
m300 50 c11 -11 20 -29 20 -40 0 -17 -7 -20 -46 -20 -32 0 -44 -4 -41 -12 2
-8 21 -13 46 -12 26 0 41 -4 41 -12 0 -30 -91 -33 -120 -4 -43 43 -11 120 50
120 17 0 39 -9 50 -20z m86 9 c4 -8 9 -8 17 0 13 13 44 14 51 2 11 -16 -5 -39
-23 -34 -23 6 -39 -14 -43 -57 -2 -27 -8 -36 -25 -38 -22 -3 -23 0 -23 61 0
35 3 67 7 70 10 11 31 8 39 -4z m-714 -121 c9 -7 18 -24 20 -37 2 -19 -3 -26
-22 -32 -24 -7 -25 -7 -2 -8 29 -1 19 -21 -11 -21 -18 0 -19 -2 -7 -10 26 -16
-29 -61 -82 -67 -47 -5 -60 3 -73 45 -5 19 -2 25 14 29 23 6 27 19 9 26 -8 3
-5 6 5 6 13 1 17 6 12 20 -12 40 97 79 137 49z m128 -38 c0 -5 -9 -10 -20 -10
-11 0 -20 -7 -20 -15 0 -8 9 -15 20 -15 11 0 20 -4 20 -10 0 -5 -9 -10 -20
-10 -11 0 -20 -7 -20 -15 0 -8 9 -15 19 -15 11 0 23 -4 26 -10 4 -6 -8 -10
-29 -10 l-36 0 0 60 0 60 30 0 c17 0 30 -4 30 -10z m60 -50 c0 -33 -4 -60 -10
-60 -11 0 -14 103 -3 113 12 12 13 8 13 -53z m460 40 c0 -5 -4 -10 -10 -10 -5
0 -10 5 -10 10 0 6 5 10 10 10 6 0 10 -4 10 -10z m-160 -31 c0 -5 -4 -9 -10
-9 -16 0 -11 -32 8 -47 16 -12 15 -13 -8 -11 -18 2 -26 11 -31 35 -3 17 -2 36
4 42 11 11 37 4 37 -10z m-202 -1 c19 -19 14 -28 -14 -28 -14 0 -23 -4 -19
-10 3 -5 15 -10 26 -10 10 0 19 -5 19 -11 0 -6 -14 -9 -32 -7 -28 3 -34 7 -36
32 -5 40 29 61 56 34z m112 2 c0 -5 -9 -10 -19 -10 -19 0 -35 -23 -24 -34 4
-3 15 -6 25 -6 10 0 18 -5 18 -11 0 -6 -12 -9 -27 -7 -29 3 -41 32 -29 64 6
16 56 20 56 4z m190 0 c0 -4 -9 -10 -20 -13 -14 -3 -20 -14 -20 -31 0 -14 -4
-26 -10 -26 -5 0 -10 17 -10 38 0 36 2 39 30 40 17 0 30 -3 30 -8z m60 -30 c0
-22 -4 -40 -10 -40 -5 0 -10 18 -10 40 0 22 5 40 10 40 6 0 10 -18 10 -40z
m100 30 c0 -5 -9 -10 -20 -10 -13 0 -20 -7 -20 -20 0 -13 7 -20 20 -20 11 0
20 -5 20 -11 0 -6 -12 -9 -27 -7 -29 3 -41 32 -29 64 6 16 56 20 56 4z"/>
<path d="M1745 2172 c-2 -2 -21 -5 -43 -8 -22 -2 -57 -10 -79 -19 -21 -8 -47
-16 -58 -18 -29 -4 -85 -31 -85 -40 0 -5 -4 -6 -9 -2 -5 3 -17 -2 -25 -11 -9
-8 -16 -13 -16 -9 0 3 -9 -3 -20 -13 -14 -13 -18 -25 -13 -38 6 -17 5 -17 -10
-5 -15 12 -21 11 -42 -9 l-24 -22 -1 -333 c-1 -308 1 -333 17 -339 10 -4 14
-4 10 0 -6 6 6 15 73 50 54 28 126 58 146 60 11 1 47 9 80 18 32 8 87 18 122
22 l62 7 0 356 0 357 -41 -1 c-22 0 -42 -2 -44 -3z"/>
<path d="M1530 516 c-7 -10 -10 -26 -6 -42 5 -19 12 -25 29 -22 18 2 22 9 22
38 0 39 -23 52 -45 26z"/>
<path d="M1315 520 c-4 -6 5 -10 20 -10 15 0 24 4 20 10 -3 6 -12 10 -20 10
-8 0 -17 -4 -20 -10z"/>
<path d="M1695 520 c-4 -6 5 -10 20 -10 15 0 24 4 20 10 -3 6 -12 10 -20 10
-8 0 -17 -4 -20 -10z"/>
<path d="M1046 378 c-8 -13 -17 -33 -20 -44 -4 -12 -17 -25 -29 -29 -20 -7
-18 -8 11 -12 41 -5 67 15 76 58 3 17 12 29 21 29 8 0 15 5 15 10 0 21 -59 11
-74 -12z"/>
<path d="M1388 333 c7 -3 16 -2 19 1 4 3 -2 6 -13 5 -11 0 -14 -3 -6 -6z"/>
</g>
</svg>
